<svg xmlns="http://www.w3.org/2000/svg" fill-rule="evenodd" stroke-linejoin="round" stroke-miterlimit="2" clip-rule="evenodd" viewBox="0 0 64 64" id="cinema-ticket"><g transform="translate(-124 -480)"><path fill="#6337b0" d="M136.13,505L179,505C179,507.946 180.592,510.519 182.962,511.908L187,507.87C183.876,504.746 183.876,499.681 187,496.556C182.426,491.982 176.018,485.574 171.444,481C168.319,484.124 163.254,484.124 160.13,481L136.13,505ZM131.583,509.547C131.033,510.342 130.342,511.033 129.547,511.583L131.583,509.547Z"></path><path fill="#d3433a" d="M187,513C182.582,513 179,509.418 179,505C167.107,505 144.893,505 133,505C133,509.418 129.418,513 125,513C125,519.468 125,528.532 125,535C129.418,535 133,538.582 133,543C144.893,543 167.107,543 179,543C179,538.582 182.582,535 187,535C187,528.532 187,519.468 187,513Z"></path><path fill="#f0b638" d="M157.077,510.656C157.214,510.263 157.584,510 158,510C158.416,510 158.786,510.263 158.923,510.656L160.351,514.764L164.699,514.853C165.115,514.861 165.48,515.132 165.608,515.528C165.737,515.924 165.601,516.357 165.269,516.609L161.804,519.236L163.063,523.399C163.184,523.797 163.039,524.228 162.702,524.472C162.366,524.717 161.911,524.721 161.57,524.484L158,522L154.43,524.484C154.089,524.721 153.634,524.717 153.298,524.472C152.961,524.228 152.816,523.797 152.937,523.399L154.196,519.236L150.731,516.609C150.399,516.357 150.263,515.924 150.392,515.528C150.52,515.132 150.885,514.861 151.301,514.853L155.649,514.764L157.077,510.656Z" transform="matrix(.75 0 0 .75 37.5 126.506)"></path><path fill="#f0b638" d="M157.077,510.656C157.214,510.263 157.584,510 158,510C158.416,510 158.786,510.263 158.923,510.656L160.351,514.764L164.699,514.853C165.115,514.861 165.48,515.132 165.608,515.528C165.737,515.924 165.601,516.357 165.269,516.609L161.804,519.236L163.063,523.399C163.184,523.797 163.039,524.228 162.702,524.472C162.366,524.717 161.911,524.721 161.57,524.484L158,522L154.43,524.484C154.089,524.721 153.634,524.717 153.298,524.472C152.961,524.228 152.816,523.797 152.937,523.399L154.196,519.236L150.731,516.609C150.399,516.357 150.263,515.924 150.392,515.528C150.52,515.132 150.885,514.861 151.301,514.853L155.649,514.764L157.077,510.656Z" transform="matrix(.75 0 0 -.75 37.5 921.5)"></path><path fill="#f0b638" d="M157.077,510.656C157.214,510.263 157.584,510 158,510C158.416,510 158.786,510.263 158.923,510.656L160.351,514.764L164.699,514.853C165.115,514.861 165.48,515.132 165.608,515.528C165.737,515.924 165.601,516.357 165.269,516.609L161.804,519.236L163.063,523.399C163.184,523.797 163.039,524.228 162.702,524.472C162.366,524.717 161.911,524.721 161.57,524.484L158,522L154.43,524.484C154.089,524.721 153.634,524.717 153.298,524.472C152.961,524.228 152.816,523.797 152.937,523.399L154.196,519.236L150.731,516.609C150.399,516.357 150.263,515.924 150.392,515.528C150.52,515.132 150.885,514.861 151.301,514.853L155.649,514.764L157.077,510.656Z" transform="translate(71.404 192.062) scale(.62537)"></path><path fill="#f0b638" d="M157.077,510.656C157.214,510.263 157.584,510 158,510C158.416,510 158.786,510.263 158.923,510.656L160.351,514.764L164.699,514.853C165.115,514.861 165.48,515.132 165.608,515.528C165.737,515.924 165.601,516.357 165.269,516.609L161.804,519.236L163.063,523.399C163.184,523.797 163.039,524.228 162.702,524.472C162.366,524.717 161.911,524.721 161.57,524.484L158,522L154.43,524.484C154.089,524.721 153.634,524.717 153.298,524.472C152.961,524.228 152.816,523.797 152.937,523.399L154.196,519.236L150.731,516.609C150.399,516.357 150.263,515.924 150.392,515.528C150.52,515.132 150.885,514.861 151.301,514.853L155.649,514.764L157.077,510.656Z" transform="rotate(-45 336.731 333.556) scale(.62537)"></path><path fill="#f0b638" d="M157.077,510.656C157.214,510.263 157.584,510 158,510C158.416,510 158.786,510.263 158.923,510.656L160.351,514.764L164.699,514.853C165.115,514.861 165.48,515.132 165.608,515.528C165.737,515.924 165.601,516.357 165.269,516.609L161.804,519.236L163.063,523.399C163.184,523.797 163.039,524.228 162.702,524.472C162.366,524.717 161.911,524.721 161.57,524.484L158,522L154.43,524.484C154.089,524.721 153.634,524.717 153.298,524.472C152.961,524.228 152.816,523.797 152.937,523.399L154.196,519.236L150.731,516.609C150.399,516.357 150.263,515.924 150.392,515.528C150.52,515.132 150.885,514.861 151.301,514.853L155.649,514.764L157.077,510.656Z" transform="matrix(.62537 0 0 -.62537 71.404 855.944)"></path><path fill="#f0b638" d="M157.077,510.656C157.214,510.263 157.584,510 158,510C158.416,510 158.786,510.263 158.923,510.656L160.351,514.764L164.699,514.853C165.115,514.861 165.48,515.132 165.608,515.528C165.737,515.924 165.601,516.357 165.269,516.609L161.804,519.236L163.063,523.399C163.184,523.797 163.039,524.228 162.702,524.472C162.366,524.717 161.911,524.721 161.57,524.484L158,522L154.43,524.484C154.089,524.721 153.634,524.717 153.298,524.472C152.961,524.228 152.816,523.797 152.937,523.399L154.196,519.236L150.731,516.609C150.399,516.357 150.263,515.924 150.392,515.528C150.52,515.132 150.885,514.861 151.301,514.853L155.649,514.764L157.077,510.656Z" transform="translate(42.98 192.062) scale(.62537)"></path><path fill="#f0b638" d="M157.077,510.656C157.214,510.263 157.584,510 158,510C158.416,510 158.786,510.263 158.923,510.656L160.351,514.764L164.699,514.853C165.115,514.861 165.48,515.132 165.608,515.528C165.737,515.924 165.601,516.357 165.269,516.609L161.804,519.236L163.063,523.399C163.184,523.797 163.039,524.228 162.702,524.472C162.366,524.717 161.911,524.721 161.57,524.484L158,522L154.43,524.484C154.089,524.721 153.634,524.717 153.298,524.472C152.961,524.228 152.816,523.797 152.937,523.399L154.196,519.236L150.731,516.609C150.399,516.357 150.263,515.924 150.392,515.528C150.52,515.132 150.885,514.861 151.301,514.853L155.649,514.764L157.077,510.656Z" transform="matrix(.62537 0 0 -.62537 42.98 855.944)"></path><path d="M188,513.789C188,513.252 187.552,512.816 187,512.816C183.134,512.816 180,509.764 180,506C180,505.462 179.552,505.026 179,505.026C167.107,505.026 144.893,505.026 133,505.026C132.448,505.026 132,505.462 132,506C132,509.764 128.866,512.816 125,512.816C124.448,512.816 124,513.252 124,513.789C124,520.088 124,528.912 124,535.211C124,535.748 124.448,536.184 125,536.184C128.866,536.184 132,539.236 132,543C132,543.538 132.448,543.974 133,543.974C144.893,543.974 167.107,543.974 179,543.974C179.552,543.974 180,543.538 180,543C180,539.236 183.134,536.184 187,536.184C187.552,536.184 188,535.748 188,535.211C188,528.912 188,520.088 188,513.789ZM186,514.71L186,534.29C181.828,534.739 178.516,537.964 178.055,542.026C178.055,542.026 133.945,542.026 133.945,542.026C133.484,537.964 130.172,534.739 126,534.29C126,534.29 126,514.71 126,514.71C130.172,514.261 133.484,511.036 133.945,506.974C133.945,506.974 178.055,506.974 178.055,506.974C178.516,511.036 181.828,514.261 186,514.71Z" transform="matrix(1 0 0 1.02703 0 -14.676)"></path><path d="M132,514L132,517C132,517.828 132.448,518.5 133,518.5C133.552,518.5 134,517.828 134,517L134,514C134,513.172 133.552,512.5 133,512.5C132.448,512.5 132,513.172 132,514Z" transform="matrix(1 0 0 .66667 0 171.333)"></path><path d="M132,514L132,517C132,517.828 132.448,518.5 133,518.5C133.552,518.5 134,517.828 134,517L134,514C134,513.172 133.552,512.5 133,512.5C132.448,512.5 132,513.172 132,514Z" transform="matrix(1 0 0 .66667 46 171.333)"></path><path d="M132,514L132,517C132,517.828 132.448,518.5 133,518.5C133.552,518.5 134,517.828 134,517L134,514C134,513.172 133.552,512.5 133,512.5C132.448,512.5 132,513.172 132,514Z" transform="rotate(-45 324.412 374.584) scale(1 .66667)"></path><path d="M132,514L132,517C132,517.828 132.448,518.5 133,518.5C133.552,518.5 134,517.828 134,517L134,514C134,513.172 133.552,512.5 133,512.5C132.448,512.5 132,513.172 132,514Z" transform="matrix(1 0 0 .66667 0 177.333)"></path><path d="M132,514L132,517C132,517.828 132.448,518.5 133,518.5C133.552,518.5 134,517.828 134,517L134,514C134,513.172 133.552,512.5 133,512.5C132.448,512.5 132,513.172 132,514Z" transform="matrix(1 0 0 .66667 46 177.333)"></path><path d="M132,514L132,517C132,517.828 132.448,518.5 133,518.5C133.552,518.5 134,517.828 134,517L134,514C134,513.172 133.552,512.5 133,512.5C132.448,512.5 132,513.172 132,514Z" transform="rotate(-45 331.655 371.585) scale(1 .66667)"></path><path d="M132,514L132,517C132,517.828 132.448,518.5 133,518.5C133.552,518.5 134,517.828 134,517L134,514C134,513.172 133.552,512.5 133,512.5C132.448,512.5 132,513.172 132,514Z" transform="matrix(1 0 0 .66667 0 183.333)"></path><path d="M132,514L132,517C132,517.828 132.448,518.5 133,518.5C133.552,518.5 134,517.828 134,517L134,514C134,513.172 133.552,512.5 133,512.5C132.448,512.5 132,513.172 132,514Z" transform="matrix(1 0 0 .66667 46 183.333)"></path><path d="M132,514L132,517C132,517.828 132.448,518.5 133,518.5C133.552,518.5 134,517.828 134,517L134,514C134,513.172 133.552,512.5 133,512.5C132.448,512.5 132,513.172 132,514Z" transform="rotate(-45 338.898 368.585) scale(1 .66667)"></path><path d="M132,514L132,517C132,517.828 132.448,518.5 133,518.5C133.552,518.5 134,517.828 134,517L134,514C134,513.172 133.552,512.5 133,512.5C132.448,512.5 132,513.172 132,514Z" transform="matrix(1 0 0 .66667 0 189.333)"></path><path d="M132,514L132,517C132,517.828 132.448,518.5 133,518.5C133.552,518.5 134,517.828 134,517L134,514C134,513.172 133.552,512.5 133,512.5C132.448,512.5 132,513.172 132,514Z" transform="matrix(1 0 0 .66667 46 189.333)"></path><path d="M132,514L132,517C132,517.828 132.448,518.5 133,518.5C133.552,518.5 134,517.828 134,517L134,514C134,513.172 133.552,512.5 133,512.5C132.448,512.5 132,513.172 132,514Z" transform="rotate(-45 346.14 365.584) scale(1 .66667)"></path><path d="M155.817,510.219L154.694,513.45C154.694,513.45 151.274,513.52 151.274,513.52C150.29,513.54 149.427,514.18 149.123,515.116C148.82,516.051 149.141,517.077 149.925,517.671C149.925,517.671 152.651,519.738 152.651,519.738C152.651,519.738 151.66,523.012 151.66,523.012C151.376,523.954 151.718,524.973 152.514,525.551C153.31,526.129 154.384,526.14 155.192,525.578C155.192,525.578 158,523.624 158,523.624C158,523.624 160.808,525.578 160.808,525.578C161.616,526.14 162.69,526.129 163.486,525.551C164.282,524.973 164.624,523.954 164.34,523.012C164.34,523.012 163.349,519.738 163.349,519.738C163.349,519.738 166.075,517.671 166.075,517.671C166.859,517.077 167.18,516.051 166.877,515.116C166.573,514.18 165.71,513.54 164.726,513.52C164.726,513.52 161.306,513.45 161.306,513.45C161.306,513.45 160.183,510.219 160.183,510.219C159.859,509.289 158.984,508.667 158,508.667C157.016,508.667 156.141,509.289 155.817,510.219ZM158,512.061L159.092,515.202C159.275,515.728 159.766,516.086 160.324,516.097L163.648,516.165L160.999,518.174C160.554,518.511 160.367,519.088 160.528,519.622L161.491,522.804L158.762,520.906C158.304,520.587 157.696,520.587 157.238,520.906L154.509,522.804L155.472,519.622C155.633,519.088 155.446,518.511 155.001,518.174L152.352,516.165L155.676,516.097C156.234,516.086 156.725,515.728 156.908,515.202L158,512.061Z" transform="matrix(.75 0 0 .75 37.5 126.506)"></path><path d="M155.817,510.219C156.141,509.289 157.016,508.667 158,508.667C158.984,508.667 159.859,509.289 160.183,510.219C160.183,510.219 161.306,513.45 161.306,513.45C161.306,513.45 164.726,513.52 164.726,513.52C165.71,513.54 166.573,514.18 166.877,515.116C167.18,516.051 166.859,517.077 166.075,517.671C166.075,517.671 163.349,519.738 163.349,519.738C163.349,519.738 164.34,523.012 164.34,523.012C164.624,523.954 164.282,524.973 163.486,525.551C162.69,526.129 161.616,526.14 160.808,525.578C160.808,525.578 158,523.624 158,523.624C158,523.624 155.192,525.578 155.192,525.578C154.384,526.14 153.31,526.129 152.514,525.551C151.718,524.973 151.376,523.954 151.66,523.012C151.66,523.012 152.651,519.738 152.651,519.738C152.651,519.738 149.925,517.671 149.925,517.671C149.141,517.077 148.82,516.051 149.123,515.116C149.427,514.18 150.29,513.54 151.274,513.52C151.274,513.52 154.694,513.45 154.694,513.45C154.694,513.45 155.817,510.219 155.817,510.219ZM161.491,522.804L160.528,519.622C160.367,519.088 160.554,518.511 160.999,518.174L163.648,516.165L160.324,516.097C159.766,516.086 159.275,515.728 159.092,515.202L158,512.061L156.908,515.202C156.725,515.728 156.234,516.086 155.676,516.097L152.352,516.165L155.001,518.174C155.446,518.511 155.633,519.088 155.472,519.622L154.509,522.804L157.238,520.906C157.696,520.587 158.304,520.587 158.762,520.906L161.491,522.804Z" transform="matrix(.75 0 0 -.75 37.5 921.5)"></path><path d="M155.567,510.131L154.504,513.188C154.504,513.188 151.268,513.254 151.268,513.254C150.172,513.276 149.21,513.991 148.871,515.034C148.532,516.077 148.89,517.22 149.764,517.883C149.764,517.883 152.343,519.838 152.343,519.838C152.343,519.838 151.406,522.936 151.406,522.936C151.089,523.985 151.471,525.121 152.358,525.766C153.245,526.41 154.443,526.423 155.344,525.796C155.344,525.796 158,523.948 158,523.948C158,523.948 160.656,525.796 160.656,525.796C161.557,526.423 162.755,526.41 163.642,525.766C164.529,525.121 164.911,523.985 164.594,522.936C164.594,522.936 163.657,519.838 163.657,519.838C163.657,519.838 166.236,517.883 166.236,517.883C167.11,517.22 167.468,516.077 167.129,515.034C166.79,513.991 165.828,513.276 164.732,513.254C164.732,513.254 161.496,513.188 161.496,513.188C161.496,513.188 160.433,510.131 160.433,510.131C160.073,509.095 159.097,508.401 158,508.401C156.903,508.401 155.927,509.095 155.567,510.131ZM158,512.871L158.841,515.289C159.06,515.921 159.65,516.349 160.318,516.363L162.878,516.415L160.838,517.962C160.305,518.366 160.08,519.059 160.274,519.699L161.015,522.15L158.913,520.687C158.364,520.305 157.636,520.305 157.087,520.687L154.985,522.15L155.726,519.699C155.92,519.059 155.695,518.366 155.162,517.962L153.122,516.415L155.682,516.363C156.35,516.349 156.94,515.921 157.159,515.289L158,512.871Z" transform="translate(71.404 192.062) scale(.62537)"></path><path d="M155.567,510.131L154.504,513.188C154.504,513.188 151.268,513.254 151.268,513.254C150.172,513.276 149.21,513.991 148.871,515.034C148.532,516.077 148.89,517.22 149.764,517.883C149.764,517.883 152.343,519.838 152.343,519.838C152.343,519.838 151.406,522.936 151.406,522.936C151.089,523.985 151.471,525.121 152.358,525.766C153.245,526.41 154.443,526.423 155.344,525.796C155.344,525.796 158,523.948 158,523.948C158,523.948 160.656,525.796 160.656,525.796C161.557,526.423 162.755,526.41 163.642,525.766C164.529,525.121 164.911,523.985 164.594,522.936C164.594,522.936 163.657,519.838 163.657,519.838C163.657,519.838 166.236,517.883 166.236,517.883C167.11,517.22 167.468,516.077 167.129,515.034C166.79,513.991 165.828,513.276 164.732,513.254C164.732,513.254 161.496,513.188 161.496,513.188C161.496,513.188 160.433,510.131 160.433,510.131C160.073,509.095 159.097,508.401 158,508.401C156.903,508.401 155.927,509.095 155.567,510.131ZM162.878,516.415L160.838,517.962C160.305,518.366 160.08,519.059 160.274,519.699L161.015,522.15L158.913,520.687C158.364,520.305 157.636,520.305 157.087,520.687L154.985,522.15L155.726,519.699C155.92,519.059 155.695,518.366 155.162,517.962L153.122,516.415L155.682,516.363C156.35,516.349 156.94,515.921 157.159,515.289L158,512.871L158.841,515.289C159.06,515.921 159.65,516.349 160.318,516.363L162.878,516.415Z" transform="rotate(-45 336.731 333.556) scale(.62537)"></path><path d="M155.567,510.131C155.927,509.095 156.903,508.401 158,508.401C159.097,508.401 160.073,509.095 160.433,510.131C160.433,510.131 161.496,513.188 161.496,513.188C161.496,513.188 164.732,513.254 164.732,513.254C165.828,513.276 166.79,513.991 167.129,515.034C167.468,516.077 167.11,517.22 166.236,517.883C166.236,517.883 163.657,519.838 163.657,519.838C163.657,519.838 164.594,522.936 164.594,522.936C164.911,523.985 164.529,525.121 163.642,525.766C162.755,526.41 161.557,526.423 160.656,525.796C160.656,525.796 158,523.948 158,523.948C158,523.948 155.344,525.796 155.344,525.796C154.443,526.423 153.245,526.41 152.358,525.766C151.471,525.121 151.089,523.985 151.406,522.936C151.406,522.936 152.343,519.838 152.343,519.838C152.343,519.838 149.764,517.883 149.764,517.883C148.89,517.22 148.532,516.077 148.871,515.034C149.21,513.991 150.172,513.276 151.268,513.254C151.268,513.254 154.504,513.188 154.504,513.188C154.504,513.188 155.567,510.131 155.567,510.131ZM154.985,522.15L157.087,520.687C157.636,520.305 158.364,520.305 158.913,520.687L161.015,522.15L160.274,519.699C160.08,519.059 160.305,518.366 160.838,517.962L162.878,516.415L160.318,516.363C159.65,516.349 159.06,515.921 158.841,515.289L158,512.871L157.159,515.289C156.94,515.921 156.35,516.349 155.682,516.363L153.122,516.415L155.162,517.962C155.695,518.366 155.92,519.059 155.726,519.699L154.985,522.15Z" transform="matrix(.62537 0 0 -.62537 71.404 855.944)"></path><path d="M155.567,510.131L154.504,513.188C154.504,513.188 151.268,513.254 151.268,513.254C150.172,513.276 149.21,513.991 148.871,515.034C148.532,516.077 148.89,517.22 149.764,517.883C149.764,517.883 152.343,519.838 152.343,519.838C152.343,519.838 151.406,522.936 151.406,522.936C151.089,523.985 151.471,525.121 152.358,525.766C153.245,526.41 154.443,526.423 155.344,525.796C155.344,525.796 158,523.948 158,523.948C158,523.948 160.656,525.796 160.656,525.796C161.557,526.423 162.755,526.41 163.642,525.766C164.529,525.121 164.911,523.985 164.594,522.936C164.594,522.936 163.657,519.838 163.657,519.838C163.657,519.838 166.236,517.883 166.236,517.883C167.11,517.22 167.468,516.077 167.129,515.034C166.79,513.991 165.828,513.276 164.732,513.254C164.732,513.254 161.496,513.188 161.496,513.188C161.496,513.188 160.433,510.131 160.433,510.131C160.073,509.095 159.097,508.401 158,508.401C156.903,508.401 155.927,509.095 155.567,510.131ZM158,512.871L158.841,515.289C159.06,515.921 159.65,516.349 160.318,516.363L162.878,516.415L160.838,517.962C160.305,518.366 160.08,519.059 160.274,519.699L161.015,522.15L158.913,520.687C158.364,520.305 157.636,520.305 157.087,520.687L154.985,522.15L155.726,519.699C155.92,519.059 155.695,518.366 155.162,517.962L153.122,516.415L155.682,516.363C156.35,516.349 156.94,515.921 157.159,515.289L158,512.871Z" transform="translate(42.98 192.062) scale(.62537)"></path><path d="M155.567,510.131C155.927,509.095 156.903,508.401 158,508.401C159.097,508.401 160.073,509.095 160.433,510.131C160.433,510.131 161.496,513.188 161.496,513.188C161.496,513.188 164.732,513.254 164.732,513.254C165.828,513.276 166.79,513.991 167.129,515.034C167.468,516.077 167.11,517.22 166.236,517.883C166.236,517.883 163.657,519.838 163.657,519.838C163.657,519.838 164.594,522.936 164.594,522.936C164.911,523.985 164.529,525.121 163.642,525.766C162.755,526.41 161.557,526.423 160.656,525.796C160.656,525.796 158,523.948 158,523.948C158,523.948 155.344,525.796 155.344,525.796C154.443,526.423 153.245,526.41 152.358,525.766C151.471,525.121 151.089,523.985 151.406,522.936C151.406,522.936 152.343,519.838 152.343,519.838C152.343,519.838 149.764,517.883 149.764,517.883C148.89,517.22 148.532,516.077 148.871,515.034C149.21,513.991 150.172,513.276 151.268,513.254C151.268,513.254 154.504,513.188 154.504,513.188L155.567,510.131ZM161.015,522.15L160.274,519.699C160.08,519.059 160.305,518.366 160.838,517.962L162.878,516.415L160.318,516.363C159.65,516.349 159.06,515.921 158.841,515.289L158,512.871L157.159,515.289C156.94,515.921 156.35,516.349 155.682,516.363L153.122,516.415L155.162,517.962C155.695,518.366 155.92,519.059 155.726,519.699L154.985,522.15L157.087,520.687C157.636,520.305 158.364,520.305 158.913,520.687L161.015,522.15Z" transform="matrix(.62537 0 0 -.62537 42.98 855.944)"></path><path d="M135.423,504.293C135.137,504.579 135.051,505.009 135.206,505.383C135.361,505.756 135.725,506 136.13,506L178.055,506C178.374,508.89 180.063,511.368 182.457,512.771C182.85,513 183.348,512.936 183.669,512.615L187.707,508.577C188.098,508.187 188.098,507.553 187.707,507.163C184.973,504.429 184.973,499.997 187.707,497.263C188.098,496.873 188.098,496.24 187.707,495.849C183.133,491.275 176.725,484.867 172.151,480.293C171.76,479.902 171.127,479.902 170.737,480.293C168.003,483.027 163.571,483.027 160.837,480.293C160.447,479.902 159.813,479.902 159.423,480.293L135.423,504.293ZM132.405,510.116C132.7,509.69 132.621,509.111 132.224,508.779C131.826,508.448 131.242,508.474 130.876,508.84L128.84,510.876C128.474,511.242 128.448,511.826 128.779,512.224C129.111,512.621 129.69,512.7 130.116,512.405C131.01,511.786 131.787,511.01 132.405,510.116ZM138.544,504L160.169,482.375C163.445,484.999 168.129,484.999 171.405,482.375C171.405,482.375 185.625,496.595 185.625,496.595C183.001,499.871 183.001,504.555 185.625,507.831C185.625,507.831 182.832,510.624 182.832,510.624C181.114,509.349 180,507.304 180,505C180,504.448 179.552,504 179,504L138.544,504Z"></path></g></svg>